<?xml version="1.0" encoding="UTF-8" standalone="no"?>
<!-- Created with Inkscape (http://www.inkscape.org/) -->

<svg
   width="114.65956mm"
   height="126.74078mm"
   viewBox="0 0 114.65956 126.74078"
   version="1.1"
   id="svg1770"
   xml:space="preserve"
   inkscape:version="1.2 (dc2aedaf03, 2022-05-15)"
   sodipodi:docname="robot head.svg"
   xmlns:inkscape="http://www.inkscape.org/namespaces/inkscape"
   xmlns:sodipodi="http://sodipodi.sourceforge.net/DTD/sodipodi-0.dtd"
   xmlns="http://www.w3.org/2000/svg"
   xmlns:svg="http://www.w3.org/2000/svg"><sodipodi:namedview
     id="namedview1772"
     pagecolor="#ffffff"
     bordercolor="#000000"
     borderopacity="0.25"
     inkscape:showpageshadow="2"
     inkscape:pageopacity="0.0"
     inkscape:pagecheckerboard="0"
     inkscape:deskcolor="#d1d1d1"
     inkscape:document-units="mm"
     showgrid="false"
     inkscape:zoom="0.50333193"
     inkscape:cx="545.36576"
     inkscape:cy="286.09351"
     inkscape:window-width="1366"
     inkscape:window-height="745"
     inkscape:window-x="-8"
     inkscape:window-y="-8"
     inkscape:window-maximized="1"
     inkscape:current-layer="layer1" /><defs
     id="defs1767" /><g
     inkscape:label="Layer 1"
     inkscape:groupmode="layer"
     id="layer1"
     transform="translate(169.77644,-63.042578)"><path
       id="path1786"
       style="fill:#000000;stroke-width:0.264583"
       d="m -113.78906,62.529297 c -3.43154,0.266626 -6.86226,0.87557 -10.11133,2.023437 -2.07495,0.90176 -3.49093,2.803557 -4.38976,4.818106 -1.32548,2.533754 -2.35489,5.205135 -3.44227,7.844004 -0.3418,-0.318612 -0.35634,-1.350951 -0.89893,-1.090955 -2.63056,0.942305 -5.06073,2.33655 -7.48388,3.708142 -2.06945,-0.03061 -4.34703,-0.693679 -6.25401,0.404098 -1.32824,1.048267 -1.57409,2.849834 -1.96115,4.386284 -0.0575,1.055662 -0.35021,2.120477 -1.11883,2.883446 -0.4369,0.540522 -0.90437,1.055424 -1.37305,1.56836 -0.116,-3.882155 0.26065,-7.796464 1.20368,-11.564211 0.2906,-1.050757 0.70151,-2.260373 0.22762,-3.302488 -0.74657,-1.072345 -2.07094,-1.485447 -2.99384,-2.372811 -0.88963,-0.668224 -1.76613,-1.353487 -2.64644,-2.033928 -4.65731,6.827447 -8.15069,14.465243 -10.1942,22.475816 -0.88432,3.501582 -1.2833,7.101515 -1.64714,10.683563 -0.60556,2.51451 -1.52574,5.08103 -1.97573,7.70588 -0.78665,3.13665 -1.80814,6.25399 -1.8888,9.51643 -0.26596,4.67937 0.0955,9.3688 0.46183,14.03199 0.62183,5.79161 1.93918,11.4812 2.93545,17.20156 1.34569,6.16329 5.06721,11.40183 7.35037,17.20925 0.52925,1.94416 0.11932,4.32668 1.70415,5.85505 3.05998,3.15639 6.71745,5.64321 10.25212,8.22781 2.23386,1.5495 4.51617,3.09298 7.00781,4.18642 1.4879,0.3077 2.77177,-0.752 4.06175,-1.30674 0.66111,-0.34127 1.31353,-0.69875 1.97145,-1.04679 0.001,-1.48764 0.005,-2.97526 0.008,-4.4629 3.27257,3.30879 6.74458,6.68144 11.14441,8.41906 6.07278,2.24989 12.7909,2.23973 19.05466,0.83721 4.30803,-0.87751 7.915245,-3.61958 11.063376,-6.55531 0.991535,-0.91554 1.954973,-1.86056 2.925059,-2.79861 0,1.56575 0,3.13151 0,4.69726 1.835887,0.81886 3.545516,2.05659 5.585937,2.3086 2.258241,-0.72682 4.130742,-2.25122 6.118141,-3.49337 4.004484,-2.71816 7.984658,-5.55148 11.411156,-8.98905 1.089485,-1.20984 1.62199,-2.84885 1.472657,-4.4668 0.0048,-1.94234 1.226144,-3.52986 1.992388,-5.22712 1.886014,-3.80205 3.859501,-7.59211 5.222121,-11.61975 0.875268,-3.19221 1.170133,-6.50607 1.911622,-9.72851 1.045491,-5.28648 1.71353,-10.64956 1.856863,-16.0395 0.220368,-4.517 0.227922,-9.2209 -1.033776,-13.54723 -0.787719,-3.33146 -1.54327,-6.67404 -2.528856,-9.95212 -0.611885,-2.95276 -0.691013,-6.152217 -1.391151,-9.163302 -1.483418,-7.680232 -4.4758,-15.038208 -8.607965,-21.670776 -0.642916,-1.100151 -1.417335,-2.126425 -2.370465,-2.977474 -1.680305,1.118003 -3.26934,2.378501 -4.774828,3.720858 -0.459919,0.457082 -0.98337,0.997701 -0.76418,1.698759 0.484246,2.655984 1.128722,5.242665 1.445596,7.930629 0.1991,1.791888 0.361356,3.666409 0.161771,5.431004 -0.560957,-0.189077 -0.811791,-0.857139 -1.251663,-1.23881 -0.701424,-0.767239 -1.275266,-1.725493 -1.218579,-2.798808 -0.334345,-1.743086 -0.765972,-3.728968 -2.285617,-4.829569 -1.323425,-0.53719 -2.778554,-0.20114 -4.161644,-0.318422 -1.231943,0.04825 -2.522395,-0.125367 -3.529271,-0.887515 -1.795386,-0.924863 -3.560872,-1.93385 -5.48096,-2.585079 -0.541481,0.124013 -0.978633,0.513576 -1.22461,1.003906 -1.433499,-3.62817 -2.766903,-7.367309 -5.011718,-10.589843 -1.363654,-1.711027 -3.480064,-2.603548 -5.596344,-2.929833 -2.92854,-0.686641 -5.91688,-1.258755 -8.93881,-1.189308 z m 1.91992,2.082031 c 3.05951,0.279143 6.11231,0.803865 9.03711,1.75 -1.91944,8.661504 -3.8737,17.318121 -5.4375,26.052734 -3.1094,0.0024 -6.21878,-0.0054 -9.32813,-0.02344 -1.59732,-8.496363 -3.55951,-16.921461 -5.23366,-25.4013 -0.2354,-0.621286 0.23075,-0.857654 0.75961,-0.936017 2.8891,-0.846156 5.89429,-1.245283 8.88326,-1.526152 0.4399,-0.0075 0.87994,0.06068 1.31931,0.08417 z m 10.70898,2.865234 c 0.87423,0.399199 0.35353,1.414911 0.21528,2.091324 -1.96082,7.952828 -3.89387,15.912711 -5.5727,23.930161 0.16426,-2.461669 0.82545,-4.869652 1.24594,-7.304069 1.2384,-6.271796 2.59006,-12.529978 4.06852,-18.756478 z m -23.59179,0.04688 c 0.31761,0.351724 0.16957,0.98277 0.39123,1.415888 1.83963,8.026697 3.60434,16.088064 5.01502,24.187627 -0.12768,0.153543 -0.22594,-0.90459 -0.3368,-1.221627 -1.82116,-7.983766 -3.71759,-15.94893 -5.71789,-23.889701 0.22392,-0.149558 0.3887,-0.402275 0.64844,-0.492187 z m -1.90821,2.853515 c 2.20226,8.480219 4.18322,17.019707 5.89844,25.611328 0.12335,1.698298 -0.51415,3.328947 -0.70976,5.000379 -1.19299,6.39466 -2.45333,12.77279 -3.76485,19.13829 -0.39494,-2.35947 -0.61382,-4.74634 -0.96217,-7.11432 -1.44753,-11.07397 -2.89719,-22.147681 -4.29955,-33.227474 1.06813,-3.179806 2.33596,-6.397935 3.83789,-9.408203 z m 27.431644,0.07227 c 0.51052,0.962928 0.927786,2.004566 1.398026,3.001541 0.797764,1.887216 1.79241,3.76271 2.050108,5.816839 0.176783,2.649934 -0.42706,5.268081 -0.641334,7.89889 -1.321664,11.001166 -2.738346,21.987061 -4.289224,32.952651 -0.49266,-2.01294 -0.8074,-4.17051 -1.26487,-6.24871 -1.13176,-5.72634 -2.26352,-11.45268 -3.39528,-17.179024 1.79518,-8.792572 3.87507,-17.517735 6.101559,-26.203125 l 0.03906,-0.03906 z m 28.101563,2.865234 c 1.91587,2.871929 3.172105,6.114693 4.505705,9.281238 1.469612,3.755061 2.545253,7.752673 3.160777,11.668388 0.9041,5.704977 0.909113,11.560241 -0.06492,17.212481 -0.915076,5.74449 -3.226575,11.30669 -6.405452,16.20854 -1.244178,1.94855 -2.60574,3.75975 -4.047673,5.58052 -1.773778,-3.442 -3.110274,-7.09691 -4.953125,-10.50195 0.155077,-0.66427 0.872419,-1.03203 1.166375,-1.64523 5.647434,-7.35194 8.173899,-16.78051 7.998143,-25.97336 -0.178493,-6.08406 -1.414492,-12.133275 -3.540735,-17.831781 -0.295383,-0.780862 -0.627268,-1.547203 -0.940189,-2.321111 0.934245,-0.707683 1.86849,-1.415365 2.802735,-2.123047 0.106119,0.148437 0.212239,0.296875 0.318359,0.445312 z m -83.328127,-0.375 c 0.94611,0.434152 1.66641,1.23339 2.47461,1.873047 0.48094,0.278244 -0.10324,0.721495 -0.10309,1.090809 -1.98401,5.606307 -3.75505,11.381233 -3.9803,17.367351 -0.53712,9.04635 1.48002,18.39189 6.5499,25.98556 0.78433,1.18287 1.68227,2.35641 2.52763,3.44886 -1.86648,3.34536 -3.07037,6.98826 -4.87305,10.34961 -0.56739,-0.0951 -0.74311,-0.85716 -1.16354,-1.19996 -1.17656,-1.50098 -2.34379,-3.07524 -3.24466,-4.69067 0.48526,-0.1645 -0.11954,-1.06362 0.46485,-0.76758 0.42025,0.0573 0.85654,-0.008 1.24023,-0.18945 -1.05531,1.64373 0.0319,4.19198 2.01758,4.40625 1.97032,-0.27438 2.86773,-2.90823 1.65625,-4.41992 -0.55344,-0.88466 -1.7472,-1.41328 -2.72071,-0.89258 0.71938,-1.34627 0.45995,-3.46325 -1.11611,-4.05577 -1.34376,-0.51023 -2.8593,0.53135 -3.09287,1.89952 -0.1897,-0.41521 -0.77919,-0.0384 -0.89062,-0.31055 -2.03421,-4.16228 -3.32542,-8.46725 -4.00977,-13.05859 -1.43259,-9.71333 0.38789,-19.685293 4.05469,-28.718749 1.13266,-2.738893 2.40396,-5.436774 3.90429,-7.986329 0.0771,-0.07038 0.18915,-0.192964 0.30469,-0.130859 z m 62.632814,6.001953 c 1.809296,0.812292 3.50932,1.842397 5.175782,2.91211 -1.050615,9.619013 -2.505414,19.274164 -3.710938,28.812504 -0.129587,0.44759 -0.09898,1.33101 -0.345322,1.51772 -2.084462,-1.54374 -4.33194,-2.79341 -6.295303,-4.48257 -0.182358,-0.78478 0.248246,-1.57157 0.216572,-2.37115 1.100324,-8.085076 1.933299,-16.199724 3.253147,-24.243873 0.186394,-0.863508 0.484456,-1.713091 0.967781,-2.457241 0.246094,0.104167 0.492188,0.208334 0.738281,0.3125 z m -41.593754,-0.300781 c 0.40373,0.136039 0.40933,0.752074 0.63192,1.083563 0.77188,2.461654 0.88922,5.064741 1.29981,7.599282 0.89995,6.805343 1.7975,13.6153 2.55265,20.4363 -0.36889,0.6776 -1.25203,0.84527 -1.79977,1.36656 -1.53567,1.02599 -3.05571,2.07631 -4.62211,3.05531 -1.33915,-10.04532 -2.68666,-20.089525 -4.04101,-30.132812 1.80774,-1.421465 3.9225,-2.41606 5.97851,-3.408203 z m 51.126958,2.964844 c 0.951929,-0.101167 1.973682,0.436971 2.159902,1.428611 0.740407,1.604138 0.59237,3.446983 0.05041,5.084654 -2.288276,9.446698 -4.744078,18.846686 -7.43045,28.191906 -0.360447,1.14832 -0.690572,2.37938 -1.18025,3.44131 -0.357572,-0.48633 -0.118726,-1.21581 -0.206458,-1.79726 0.03956,-4.13423 0.789733,-8.30879 1.27895,-12.44753 1.039967,-7.916499 2.091794,-15.817714 3.243914,-23.720051 0.683987,-0.14181 1.38762,-0.165842 2.083985,-0.18164 z m -61.212888,0.01172 c 0.60991,0.08111 1.52289,-0.195555 1.91303,0.370105 1.22339,7.285061 2.07932,14.608686 3.09223,21.921017 0.60566,4.69046 1.26781,9.38134 1.63193,14.08072 0.002,0.62036 -0.1344,1.23482 -0.34032,1.81761 -1.59406,-3.84462 -2.40958,-7.85552 -3.54939,-11.86509 -1.90915,-7.2859 -3.91266,-14.537743 -5.54416,-21.888541 -0.14182,-1.360927 0.2779,-2.752264 0.94902,-3.92215 0.46319,-0.494121 1.22255,-0.485527 1.84766,-0.513671 z m 70.664059,4.753906 c 1.240016,5.635262 1.362851,11.645207 0.365235,17.380856 -0.07221,0.48561 -0.274283,1.44665 -0.133211,0.36797 0.515305,-3.75591 0.212629,-7.663049 -0.444643,-11.424713 -0.229486,-2.476326 -0.01809,-4.962307 -0.05105,-7.443254 0.08789,0.373047 0.175781,0.746094 0.263671,1.119141 z m -80.097659,-0.259766 c -0.11892,1.813116 0.16975,3.621765 0.23369,5.424028 -0.2233,2.452025 -0.81653,4.868498 -0.7705,7.343731 -0.0568,1.822133 0.035,3.644573 0.14228,5.462713 -0.51128,-2.46414 -0.62553,-4.892191 -0.68945,-7.398831 -0.012,-3.586885 0.19599,-7.17646 0.92998,-10.718873 0.11243,-0.388025 0.25787,-1.076926 0.154,-0.112768 z m 75.533206,3.34961 c 1.563035,1.729698 2.71552,3.935383 2.704381,6.31291 0.273032,3.662892 0.277524,7.379432 -0.338413,11.007992 -0.82968,4.27643 -2.727106,8.51948 -5.105491,12.2721 -0.285703,0.46516 -0.613358,0.903 -0.928445,1.3484 -1.44836,-1.33541 -2.840089,-2.73484 -4.138672,-4.21679 2.398926,-9.13524 4.80032,-18.270999 7.166015,-27.414066 0.213542,0.229818 0.427084,0.459636 0.640625,0.689454 z m -70.511716,-0.34375 c 2.53094,8.885177 4.69899,17.876542 7.15188,26.781362 0.12209,0.54851 -0.60192,0.86495 -0.85364,1.29107 -1.04834,1.10984 -2.21318,2.0993 -3.31973,3.14827 -4.51279,-6.4157 -7.06436,-14.30857 -6.55455,-22.18217 0.16732,-1.995732 0.31392,-4.058079 1.09314,-5.923032 0.57233,-1.185548 1.40665,-2.279715 2.38524,-3.138938 l 0.0879,-0.002 z m 34.90234,5.287109 c 1.4072,0.105422 2.91055,-0.179215 4.24283,0.360438 1.4279,1.174038 1.52137,3.14311 1.90951,4.789953 1.64016,8.612562 3.4941,17.197392 4.91993,25.835932 0.17192,0.61459 -0.13789,1.13959 -0.59118,1.52228 -1.1939,1.37134 -2.46559,2.67181 -3.71156,3.9953 -4.56193,0.0948 -9.13541,0.27044 -13.68945,-0.11132 -1.43125,-1.66373 -3.00854,-3.22234 -4.18359,-5.0879 1.72403,-9.30553 3.50053,-18.60408 5.53125,-27.847652 0.26791,-1.002893 0.53348,-2.116422 1.1621,-3.021484 0.95296,-0.639227 2.17587,-0.276259 3.24921,-0.423143 0.38698,-0.0041 0.77397,-0.0084 1.16095,-0.0124 z m -0.58984,1.865234 c -1.29477,0.13918 -2.91246,-0.155208 -3.85931,0.951598 -1.14352,1.66415 -1.18675,3.765651 -1.66086,5.667951 -1.42497,7.52562 -2.67386,15.08868 -4.01304,22.6324 1.47387,1.54366 2.59318,3.49391 4.42748,4.64963 1.73883,0.74369 3.68328,0.46585 5.52248,0.55349 1.96749,-0.0535 4.00163,0.0434 5.89947,-0.51873 1.55743,-0.87024 2.47466,-2.47608 3.61737,-3.78595 0.61128,-0.72421 0.84061,-1.71658 0.50975,-2.61435 -1.31346,-7.91069 -2.60618,-15.82903 -4.22757,-23.68255 -0.28966,-1.124541 -0.56544,-2.379618 -1.41297,-3.215463 -1.25642,-0.843911 -2.8579,-0.539926 -4.28366,-0.642939 -0.17305,0.0016 -0.34609,0.0033 -0.51914,0.0049 z m 1.36133,1.869141 c 0.78597,0.08115 1.62771,-0.147796 2.36914,0.191406 1.01262,2.065772 1.1386,4.357282 1.64125,6.570712 1.18181,6.50722 2.40442,13.02511 3.28648,19.5914 0.15661,0.88851 -0.70426,1.45519 -1.15466,2.11217 -0.64219,0.74633 -1.34045,1.44171 -2.00159,2.17103 -3.30965,0.12204 -6.68482,0.25812 -9.89258,-0.0937 -1.00573,-1.15367 -2.03338,-2.2869 -3.0039,-3.4707 0.0686,-2.93555 0.83292,-5.7931 1.24347,-8.68907 1.03117,-5.76081 1.87163,-11.54411 3.28775,-17.221554 0.23447,-0.397393 0.25423,-1.231735 0.87842,-1.079682 1.11541,-0.02721 2.2308,-0.05532 3.34622,-0.08196 z m -1.18946,5.103518 c -3.21664,0.25695 -5.24981,4.43499 -3.4434,7.11695 1.35017,2.26455 4.83627,3.03345 6.8396,1.188 1.24443,-0.91856 1.82371,-2.51747 1.65269,-4.02988 -0.009,-1.58477 -0.99435,-3.09577 -2.47796,-3.68351 -0.78588,-0.41408 -1.67741,-0.66309 -2.57093,-0.59156 z m 52.46094,1.125 c 0.165727,6.07699 -0.466723,12.02761 -1.937711,17.92931 -1.091559,4.24584 -2.451386,8.39953 -4.617037,12.24378 -1.339707,2.38193 -2.770248,4.74175 -4.421814,6.91089 -0.200171,0.27278 -0.474437,0.53542 -0.817534,0.30493 -0.440578,-0.10884 -1.107296,-0.15629 -0.905447,-0.78905 0.0028,-1.85797 0.201601,-3.71129 0.392361,-5.57216 0.575989,-1.08544 1.524349,-1.91758 2.203259,-2.93946 4.133835,-5.34482 7.245874,-11.51488 8.765036,-18.11595 0.797563,-3.26343 1.216476,-6.62718 1.338887,-9.97229 z m -103.86914,1.93945 c 0.29211,6.22673 2.02483,12.33891 4.82039,17.89833 1.85793,3.80635 4.18572,7.39956 7.04094,10.53526 0.68596,1.78219 0.49566,3.73819 0.73154,5.60282 -0.0759,0.42282 0.33706,1.19651 -0.28833,1.2499 -0.52509,0.14834 -1.34963,0.54362 -1.5759,-0.21672 -2.64136,-4.04255 -5.39341,-8.09739 -6.99036,-12.69264 -0.83722,-2.51985 -1.66016,-5.25564 -2.25977,-7.87695 -1.15757,-4.916 -1.65355,-9.99213 -1.5,-15.07617 0.007,0.19206 0.0143,0.38411 0.0215,0.57617 z m 51.96289,-0.52539 c 1.02027,0.20306 1.30522,1.80144 0.30469,2.24219 -0.67517,0.28114 -1.26358,-0.53235 -1.47266,-1.08008 0.0704,-0.58316 0.68059,-0.94918 1.16797,-1.16211 z m 2.74609,1.7832 c 0.35708,1.82862 -1.52367,3.55208 -3.3175,3.1464 -1.48483,-0.14181 -2.58805,-1.6602 -2.2782,-3.11515 0.29843,1.24333 1.45851,2.18452 2.7488,2.13838 1.32827,0.0457 2.58734,-0.85309 2.8469,-2.16963 z m 51.064457,4.32422 c 0.534906,5.37392 0.186295,10.91584 -1.19296,16.18179 -0.406687,1.54393 -0.739432,3.16831 -1.449618,4.58774 -0.661135,0.17291 -1.319277,-0.25026 -1.958985,-0.38867 -0.489644,-0.49161 0.182389,-1.14389 0.227161,-1.6978 1.245298,-3.75915 2.497636,-7.52938 3.195369,-11.43624 0.535566,-2.68398 0.865946,-5.41072 1.087236,-8.13354 0.0306,0.29558 0.0612,0.59115 0.0918,0.88672 z m -107.615237,0.32813 c 0.65443,6.38945 2.14003,12.68269 4.30469,18.72656 -3.2e-4,0.32479 0.57645,1.16206 0.15052,1.327 -0.65389,0.17251 -1.29662,0.43312 -1.9806,0.45034 -0.98576,-2.23225 -1.46206,-4.65062 -1.98884,-7.02234 -0.95193,-4.7568 -1.29202,-9.83072 -0.59319,-14.63195 0.0358,0.38346 0.0716,0.76692 0.10742,1.15039 z m 38.81055,2.93359 c 0.5049,3.62098 0.97483,7.2359 1.42383,10.87109 1.30955,2.37914 3.39504,4.18355 5.10351,6.25977 0.75643,0.77665 1.93214,0.4669 2.89865,0.65451 4.07086,0.26237 8.16494,0.20832 12.23221,-0.0764 0.70845,-0.0717 1.50569,-0.13615 1.88354,-0.83469 1.56513,-1.75538 3.12809,-3.51272 4.694588,-5.26688 0.673451,-5.01048 1.277965,-10.0051 2.080078,-14.99609 1.015733,0.34641 1.792483,1.16529 2.707251,1.7072 1.233723,0.90119 2.626542,1.6842 3.573999,2.90217 0.4632,1.26561 0.128819,2.66835 0.555113,3.95115 0.191696,1.06086 1.204103,2.18612 2.36534,1.76943 0.90569,-0.30049 1.434937,-1.16774 1.835406,-1.97839 2.461194,2.35857 4.950333,4.88849 6.142875,8.15547 0.767236,1.71353 1.429662,3.43633 2.130562,5.17656 -7.79385,2.66329 -16.01798,4.05525 -24.184812,4.78488 -7.93873,0.72552 -15.97953,0.72759 -23.87891,-0.25476 -6.7105,-0.80294 -13.3408,-1.97039 -19.77807,-4.04574 -0.45531,-0.24258 -1.16076,-0.2372 -1.46485,-0.6543 0.20497,-0.98202 0.75065,-1.91727 1.0617,-2.85215 1.23812,-3.10851 2.72606,-6.24283 5.2588,-8.51491 0.60306,-0.61177 1.20853,-1.22113 1.82208,-1.82239 0.44636,1.00821 1.3161,2.24983 2.57509,2.01579 1.40821,-0.33952 1.71016,-1.9717 1.93288,-3.18452 0.16423,-0.80705 0.0859,-1.63447 0.0369,-2.44846 1.81997,-1.74735 3.9839,-3.07851 6.00266,-4.5764 0.69836,-0.77256 0.50374,0.492 0.65553,0.96633 0.11133,0.7639 0.22267,1.52781 0.334,2.29171 z m 14.61523,-1.85937 c -3.61266,0.0708 -6.91039,3.3957 -6.64547,7.06127 -0.0813,2.16525 0.91569,4.34553 2.70471,5.5954 2.22157,1.78039 5.58691,2.05507 7.95421,0.39457 2.83557,-1.78515 4.23036,-5.69208 2.79891,-8.79408 -1.07645,-2.64937 -3.97704,-4.39986 -6.81236,-4.25716 z m 3.63868,2.91015 c 2.67624,2.13756 2.43384,6.90934 -0.55469,8.66406 -2.53561,1.61798 -6.31748,0.4651 -7.51164,-2.30029 -0.99457,-2.04358 -0.473,-4.79465 1.37492,-6.18017 -1.05328,1.75797 -0.8731,4.37644 0.89258,5.62304 1.67153,1.30228 4.37304,1.09355 5.65039,-0.66015 1.2701,-1.46601 1.27985,-3.87326 -0.0586,-5.29883 0.069,0.0508 0.13803,0.10156 0.20704,0.15234 z m -3.30274,0.19922 c 1.75226,-0.0436 3.03664,2.35099 1.80046,3.69653 -0.79272,1.18577 -2.80659,1.39927 -3.61129,0.10895 -0.64964,-0.71291 -0.72863,-1.82408 -0.13511,-2.59331 0.39465,-0.68627 1.13094,-1.22278 1.94594,-1.21217 z m 37.66797,3.67969 c -2.240655,0.36781 -2.811593,3.74416 -1.015625,5.00195 0.720692,0.72071 1.972017,0.57082 2.605469,-0.18945 0.435273,0.4777 -0.552781,0.39323 -0.767359,0.74523 -1.477736,1.07589 -1.641543,3.65898 0.0056,4.65711 1.127437,0.71846 2.628113,0.0324 3.158387,-1.10972 0.530809,-0.91279 0.367988,-2.17803 -0.117371,-2.98989 1.227294,0.61936 2.727605,-0.21419 3.115458,-1.4696 0.625389,-1.39432 -0.101378,-3.51588 -1.801005,-3.59485 -1.642175,-0.2153 -2.941997,1.49612 -2.673828,3.04102 -0.618763,-0.0182 -0.05288,-0.55566 -0.09178,-0.97519 0.268508,-1.40388 -0.663116,-3.16115 -2.230866,-3.1275 -0.06218,0.004 -0.126703,-0.012 -0.187116,0.0109 z m -75.84766,0.0156 c -2.29157,0.32356 -2.82961,3.84107 -0.93945,5.02149 1.14581,0.80593 2.83275,0.19136 3.30273,-1.09571 0.60766,-1.53063 -0.23933,-3.76362 -2.02929,-3.93164 -0.11075,0.005 -0.22461,-0.0168 -0.33399,0.006 z m 0.31641,1.83789 c 0.5089,0.41516 0.68818,1.42962 0.0684,1.80274 -0.80415,-0.12739 -0.98428,-1.75144 -0.0684,-1.80274 z m 75.964844,0.0312 c 0.686273,0.35691 0.335173,1.61373 -0.361328,1.67969 -0.57952,-0.37881 -0.694427,-1.39494 0.07813,-1.63867 0.08901,-0.0387 0.186906,-0.0538 0.283203,-0.041 z m 4.660156,0.84766 c 0.361249,0.4978 0.464927,1.65625 -0.34375,1.72461 -0.825403,-0.36048 -0.453229,-1.58007 0.34375,-1.72461 z m -85.16211,0.11719 c 0.47749,0.41435 0.50449,1.47344 -0.17578,1.66601 -0.81397,-0.22395 -0.86445,-1.63435 0.0371,-1.76758 l 0.0807,0.0591 z m -13.24023,1.23828 c 0.56451,3.36972 1.40126,6.69741 2.55859,9.91406 -0.29069,0.43094 -0.45095,0.96619 -0.86523,1.30274 -1.13968,-4.07537 -2.00141,-8.28552 -1.89258,-12.50782 0.0664,0.43034 0.13281,0.86068 0.19922,1.29102 z m 111.365231,-1.08789 c -0.09511,4.11501 -0.610927,8.25292 -1.802735,12.19336 -0.249087,0.33192 -0.475577,-0.51862 -0.625579,-0.702 -0.470732,-0.87097 0.250632,-1.72503 0.395111,-2.58121 0.877512,-2.91966 1.581273,-5.89671 2.033203,-8.91015 z m -15.001953,2.36133 c -0.113504,0.22439 -0.242032,-0.42168 0,0 z m -80.656248,1.54101 c 0.84993,0.0474 0.9942,1.69442 0.11523,1.76758 -0.61198,-0.30042 -0.56413,-1.34506 -0.11523,-1.76758 z m 79.832029,0.14258 c 0.498672,0.42517 0.319448,1.61514 -0.427735,1.57422 -0.64567,-0.36338 -0.47891,-1.56978 0.28711,-1.67578 l 0.08107,0.0586 z m -88.078129,6.98242 c 1.66412,2.80891 3.36538,5.59692 5.16993,8.31836 -0.80007,0.33346 -1.63049,0.58763 -2.45899,0.83984 -1.69109,-2.80863 -3.28637,-5.67482 -4.7793,-8.59374 0.67216,-0.23901 1.3684,-0.44426 2.06836,-0.56446 z m 96.833988,0.16602 c 0.547921,0.0478 1.081333,0.18865 1.603516,0.35547 -1.592873,2.91184 -3.146312,5.85338 -4.990235,8.61718 -0.809244,-0.25195 -1.618489,-0.5039 -2.427734,-0.75586 1.851257,-2.6357 3.448111,-5.44538 5.216797,-8.1289 0.172177,-0.13643 0.395397,-0.10507 0.597656,-0.0879 z m -11.34375,0.29883 c 0.684675,1.26755 0.085,2.73292 0.115784,4.086 -0.142764,1.13202 -0.115123,2.34508 -0.36338,3.42694 -0.479968,0.46509 -0.959936,0.93017 -1.439904,1.39526 0.145612,-2.80615 0.271685,-5.6152 0.257813,-8.42578 0.476531,-0.16089 0.923434,-0.42556 1.429687,-0.48242 z m -74.640628,0.0449 c 0.49957,0.10801 0.98087,0.28101 1.45899,0.45898 0.0573,2.76693 0.11458,5.53386 0.17187,8.30078 -0.53396,-0.5957 -1.33182,-1.09921 -1.57137,-1.86756 -0.11374,-2.25463 -0.57715,-4.52449 -0.29191,-6.77697 0.0428,-0.0815 0.13636,-0.1517 0.23242,-0.11523 z m 71.298831,1.75781 c 0.09685,1.75711 0.145603,3.57497 -0.128906,5.32812 -0.591054,1.3233 -2.064975,1.86956 -3.112645,2.76484 -4.727408,3.31342 -9.956948,6.29129 -15.764308,7.05743 -0.829532,-0.37072 -1.452376,-1.10908 -2.191362,-1.63776 -1.72921,-1.43005 -3.53652,-3.15094 -5.91007,-3.26801 -2.32205,-0.17534 -4.65671,-0.0563 -6.98411,-0.10115 -2.78008,9.8e-4 -5.56016,0.002 -8.34024,0.003 -2.09132,1.59679 -4.23517,3.12986 -6.20117,4.88282 -1.74588,0.24387 -3.44203,-0.47195 -5.09019,-0.94675 -4.81402,-1.65898 -9.20134,-4.59632 -13.12075,-7.5513 -0.53724,-0.46501 -1.34932,-0.96177 -1.1513,-1.79324 -0.0807,-1.78809 -0.20081,-3.57611 -0.18073,-5.36692 5.4222,1.52678 10.89941,2.91522 16.49982,3.60434 8.80125,1.17643 17.72698,1.65058 26.59021,0.95156 8.465468,-0.68088 16.928923,-1.98754 25.033017,-4.58129 0.01758,0.2181 0.03516,0.4362 0.05273,0.6543 z m -85.726561,-0.64258 c 1.60098,3.05971 3.32215,6.0533 5.0664,9.03125 -0.43714,0.89212 -0.74832,1.84156 -0.97851,2.80664 -1.99355,-3.11343 -3.9137,-6.29678 -5.34766,-9.71289 0.41288,-0.71117 0.81789,-1.43765 1.25977,-2.125 z m 103.498046,0.0293 c 0.437362,0.70994 0.832023,1.44458 1.232422,2.17578 -1.576453,3.28515 -3.355849,6.47394 -5.306641,9.57617 -0.303921,-0.95982 -0.687425,-1.89312 -1.105469,-2.80859 1.861699,-2.9 3.476055,-5.95663 5.179688,-8.94336 z m 1.259765,7.86914 c -0.131341,3.81063 -0.274266,7.70946 -1.890777,11.25086 -1.252469,2.79851 -2.508592,5.59932 -3.974457,8.29406 0.121738,-4.13173 0.389078,-8.25837 0.558594,-12.38867 1.919716,-2.85793 3.625223,-5.84937 5.361328,-8.82031 -0.01823,0.55468 -0.03646,1.10937 -0.05469,1.66406 z m -105.939451,-1.26172 c 0.53953,0.71984 0.8712,1.58188 1.38621,2.32755 1.20001,2.06531 2.48323,4.08045 3.7759,6.08847 0.18406,4.14478 0.37281,8.28934 0.56836,12.43359 -1.50239,-2.85112 -2.91076,-5.75774 -4.16406,-8.72751 -0.99659,-2.29402 -1.39303,-4.76623 -1.45946,-7.24271 -0.068,-1.63634 -0.13146,-3.2942 -0.15773,-4.91845 z m 91.630858,1.07422 c 1.92798,0.65288 4.027194,0.92454 5.814172,1.91068 0.422681,0.47552 0.09695,1.02162 -0.280893,1.37892 -4.03525,5.33118 -8.363178,10.42907 -12.563706,15.62856 -0.973424,1.16333 -1.983889,2.29559 -3.037933,3.38653 -1.042716,-0.20431 -2.002107,-0.54849 -2.939453,-0.97071 2.943514,-5.78243 5.826715,-11.60571 9.072468,-17.22474 1.062546,-1.55748 2.405148,-2.77655 3.804485,-4.03112 0.05733,0.0231 0.0796,-0.0794 0.13086,-0.0781 z m -77.386718,0.0215 c 1.85175,1.76799 3.82082,3.52537 4.91789,5.89186 2.76206,5.05549 5.37727,10.19019 7.98055,15.32885 -0.97791,0.46771 -2.01508,0.7961 -3.0586,1.08203 -5.31208,-6.22204 -10.40225,-12.63178 -15.39258,-19.11328 -0.34538,-0.41831 -0.83848,-0.94954 -0.17773,-1.33203 1.23669,-0.80319 2.66779,-0.98627 4.03721,-1.41596 0.56417,-0.14624 1.1303,-0.29966 1.69326,-0.44147 z m 72.261718,1.80274 c -1.044453,2.01512 -2.18574,3.98063 -3.224994,6.00091 -2.599109,4.87512 -5.137078,9.78333 -7.702741,14.67682 -0.206216,2.07828 -0.01425,4.15106 -0.542635,6.17814 -0.921097,1.62736 -2.296058,2.93176 -3.564787,4.27889 -0.191374,-0.24094 0.207162,-0.7607 0.186834,-1.08025 1.897116,-7.75561 3.132,-15.67237 3.711604,-23.63654 3.983097,-1.88408 7.696851,-4.27924 11.292969,-6.8125 -0.05208,0.13151 -0.104167,0.26302 -0.15625,0.39453 z m -67.105468,-0.21289 c 2.96908,2.20973 6.13346,4.1703 9.45412,5.8162 0.5381,0.34425 1.31007,0.51647 1.71868,0.93786 0.51829,8.29563 1.98951,16.51322 3.89556,24.58383 -0.35188,-0.0823 -0.51281,-0.59539 -0.80895,-0.81738 -1.11228,-1.28802 -2.52387,-2.47936 -3.04652,-4.14747 -0.35527,-1.82767 -0.0885,-3.72959 -0.45898,-5.54492 -3.60184,-6.92667 -7.1769,-13.86838 -10.89454,-20.73242 -0.0405,-0.18058 -0.0129,-0.1882 0.14063,-0.0957 z m 40.82617,3.31836 c 2.35267,1.5145 4.42344,3.40912 6.673829,5.0625 2.242923,0.19331 4.46194,-0.43398 6.574219,-1.11719 -0.183326,6.14646 -1.425064,12.25158 -2.604681,18.31739 -0.577425,2.66986 -1.155507,5.41572 -2.184012,7.968 -0.962724,1.31374 -2.531413,1.96843 -3.822805,2.89916 -0.87129,0.5437 -1.78497,1.02799 -2.7928,1.36037 -0.91359,-1.08192 -1.43132,-2.43964 -2.08008,-3.66992 -0.74684,-0.72767 -1.87954,-0.26727 -2.79961,-0.3918 -3.71784,0.002 -7.43567,0.005 -11.15351,0.007 -0.75663,1.38636 -1.46588,2.76406 -2.26172,4.12305 -2.42078,-1.00868 -4.74571,-2.39563 -6.57227,-4.28711 -0.76872,-1.32993 -0.86434,-2.91302 -1.33313,-4.35506 -1.7787,-7.14694 -2.96208,-14.49329 -3.41296,-21.84611 1.94907,0.39387 4.01371,1.2681 6.08398,0.99609 1.70372,-0.73409 2.92108,-2.20654 4.45448,-3.20974 0.97892,-0.67998 1.91167,-1.60973 3.09904,-1.85666 4.71068,0 9.42135,0 14.13203,0 z m -53.06641,0.25976 c 5.4361,6.38931 10.75666,12.88208 15.85547,19.54297 0.58094,1.15617 0.28465,2.50585 0.50536,3.7448 0.27984,4.09932 0.51534,8.18866 0.63722,12.28254 -0.68674,-0.0629 -1.176,-0.72157 -1.78726,-1.01681 -3.66805,-2.43841 -7.49344,-4.90964 -10.74008,-7.77225 -1.01644,-0.95804 -2.11434,-1.86956 -2.97555,-3.00492 -0.47223,-0.7957 -0.39117,-1.75192 -0.48344,-2.63766 0.68973,0.5246 0.73391,1.38813 0.93946,2.1504 0.71686,1.77627 2.4899,2.76216 3.82022,4.03055 3.26234,2.7518 6.75605,5.21083 10.27939,7.61398 0.002,-4.86011 -0.11992,-9.74011 -0.71485,-14.5625 -0.71337,-1.74543 -2.14725,-3.04846 -3.22954,-4.56014 -3.72855,-4.6742 -7.39111,-9.39705 -11.21577,-13.9926 -0.22593,2.00256 -0.13183,4.04552 0.003,6.01958 -0.0442,0.7625 0.28873,1.69019 -0.22552,2.33784 -0.41652,0.17557 -0.22018,-0.65783 -0.2648,-0.92213 -0.14941,-3.08082 -0.3387,-6.18331 -0.40317,-9.25365 z m 91.363286,0 c 0.23035,0.28772 -0.02108,0.81241 0.05664,1.17578 -0.08958,3.10505 -0.241797,6.20772 -0.386718,9.31055 -0.795371,-0.59415 -0.332441,-1.69259 -0.449219,-2.52344 0.02717,-2.16492 0.07826,-4.32945 0.11914,-6.49414 -4.829348,6.14515 -9.776238,12.19412 -14.679687,18.2793 -0.277374,4.63021 -0.714563,9.27056 -0.603482,13.9082 0.130696,0.77086 1.095566,0.69721 1.493935,0.18999 3.916772,-2.63813 7.791706,-5.40964 11.185079,-8.71189 0.955643,-0.94278 1.800698,-2.1147 1.873687,-3.49958 0.237095,-0.60425 0.537028,-0.74624 0.360526,0.003 -0.04845,1.0929 -0.118858,2.33979 -1.064252,3.06535 -2.647165,2.78636 -5.846388,4.96548 -8.959157,7.19041 -1.915822,1.30832 -3.870606,2.55839 -5.841024,3.78273 0.22868,-5.26724 0.219309,-10.51228 1.006989,-15.72476 0.518038,-1.4826 1.830464,-2.47625 2.6868,-3.7531 4.347111,-5.41465 8.688006,-10.8387 13.136289,-16.16862 l 0.05859,-0.0293 z m -88.726566,6.77344 c 0.2858,0.41925 1.0657,1.05456 0.43555,1.51953 -0.39546,0.40282 -0.41222,-0.33039 -0.45136,-0.57021 -0.0212,-0.27585 -0.0649,-0.85476 0.0158,-0.94932 z m 86.150394,0.0996 c -2.25e-4,0.57418 0.09124,1.18398 -0.07031,1.73633 -0.455536,-0.13527 -1.038642,-0.62351 -0.546875,-1.0918 0.17576,-0.23197 0.417876,-0.47581 0.617188,-0.64453 z m -1.382813,3.07812 c 0.547527,0.41453 1.086323,0.84021 1.626953,1.26368 -3.753343,3.60625 -7.511844,7.20794 -11.349609,10.72461 -0.133813,-1.00664 0.378949,-1.90115 1.052114,-2.59927 2.616799,-3.33037 5.323119,-6.58839 7.983042,-9.88316 0.229167,0.16472 0.458334,0.32943 0.6875,0.49414 z m -82.990231,-0.3789 c 0.7149,0.40481 1.03698,1.25417 1.63435,1.80545 2.49843,3.09983 5.07562,6.1366 7.36081,9.36859 0.16217,0.41573 0.22065,0.8638 0.25288,1.30643 -3.6611,-3.35084 -7.29204,-6.74402 -10.84746,-10.20307 -0.34218,-0.22417 -0.71171,-0.72563 -0.17988,-0.99615 0.62882,-0.35914 1.1148,-0.92827 1.73047,-1.28321 l 0.0312,-0.002 z m 86.511716,2.46484 c 0.01074,0.90203 -0.09427,1.8145 -0.13086,2.72266 -0.042,0.80143 -0.4624,-0.60508 -0.485778,-0.92029 -0.05306,-0.64092 0.06511,-1.44685 0.589294,-1.86682 z m -90.208986,0.30274 c 0.6018,0.71571 0.81927,1.96599 -0.041,2.58007 -0.0469,-0.93684 -0.0937,-1.87369 -0.14063,-2.81054 0.0606,0.0768 0.12109,0.15364 0.18164,0.23047 z m 2.00195,1.21289 c -0.0813,0.21929 -0.52175,0.30611 -0.35156,0.004 0.0859,-0.0944 0.70614,-0.27832 0.35156,-0.004 z m -0.41015,2.32226 c -0.48471,-0.4082 -1.14818,0.43469 -0.78037,-0.43729 0.33103,-1.18868 0.44425,0.0262 0.78037,0.43729 z m 85.332029,-0.85351 c 0.379926,0.36469 1.08265,0.52653 1.195313,1.08789 -1.501099,1.47878 -3.098762,2.86463 -4.642702,4.30187 -2.158569,1.95421 -4.323465,3.87897 -6.517454,5.80164 -0.0067,-0.75282 -0.127807,-1.65878 0.609055,-2.13065 2.127357,-1.9646 4.15416,-4.04399 6.25162,-6.04431 1.034907,-1.00502 2.06834,-2.01369 3.104168,-3.01644 z m -84.138669,0.0762 c 3.11113,2.97529 6.43271,5.69794 9.19654,8.99596 0.50733,0.671 0.93771,1.44988 0.97533,2.30873 -3.81771,-3.44532 -7.63541,-6.89063 -11.45312,-10.33594 0.41538,-0.33271 0.77295,-0.77347 1.28125,-0.96875 z m 87.144529,2.01562 c -0.03207,0.55165 -0.04698,1.11942 -0.09961,1.66016 -0.664978,-0.46909 -0.571301,-1.53014 0.13086,-1.91211 -0.01042,0.084 -0.02083,0.16797 -0.03125,0.25195 z m -89.816409,0.0391 c 0.31439,0.31956 0.91047,0.88849 0.32227,1.27148 -0.47163,0.24371 -0.24022,-0.65418 -0.30262,-0.9261 0.0134,-0.10098 -0.0319,-0.2695 -0.0196,-0.34538 z m 87.373049,2.11718 c 0.243448,0.20007 1.022961,0.61201 0.402239,0.8984 -3.60721,3.32785 -7.217306,6.61508 -10.913957,9.84184 -0.07297,-0.76352 0.105624,-1.59994 0.809613,-2.01593 3.188469,-2.9519 6.481511,-5.79892 9.66109,-8.7536 z m -85.066409,-0.0156 c 0.64452,0.3784 1.0212,1.09365 1.63535,1.53054 2.82702,2.72754 5.88351,5.13598 8.52676,8.00462 0.22353,0.32121 0.42762,1.11688 0.26337,1.22854 -3.88317,-3.27551 -7.63131,-6.70745 -11.32782,-10.19144 0.27141,-0.22086 0.52869,-0.54291 0.90234,-0.57226 z m 17.9375,0.0527 c 0.4122,5.10283 0.42855,10.28355 0.58789,15.42774 -0.88672,0.42773 -1.77343,0.85547 -2.66015,1.2832 -0.0761,-5.21946 -0.32406,-10.44357 -0.711,-15.64358 -0.0154,-0.4693 0.85977,-0.29282 1.16498,-0.55163 0.53946,-0.17171 1.07867,-0.34499 1.61828,-0.51573 z m 49.400394,0.0801 c 0.906738,0.21849 1.797085,0.50942 2.65039,0.88672 -0.179212,5.0979 -0.550024,10.17286 -0.802734,15.26758 0.116356,0.91046 -0.770321,-0.0389 -1.201295,-0.16315 -0.377907,-0.34644 -1.266887,-0.42479 -1.226439,-1.02357 -0.01207,-4.99463 0.199498,-9.98636 0.455078,-14.97344 l 0.0293,-0.0195 z m -47.023434,7.01563 c 3.71506,3.7715 7.57887,7.76091 12.68776,9.56523 0.76533,0.31376 1.73411,0.0333 2.03215,-0.78397 0.69294,-1.05908 1.24541,-2.20077 1.87188,-3.29884 3.78581,-0.0449 7.57162,-0.0899 11.35742,-0.13477 0.85152,1.37672 1.3732,3.06534 2.61344,4.13983 1.41771,0.47563 2.76618,-0.50148 3.98841,-1.09122 3.775964,-2.1003 7.078796,-4.9798 9.904014,-8.23415 0.08705,0.97006 -0.185059,1.98018 -0.948188,2.62535 -3.187175,3.69406 -6.97665,7.04649 -11.525316,8.93184 -3.58595,1.20767 -7.34392,1.57976 -11.10754,1.51261 -2.62504,-0.0846 -5.24019,-0.56047 -7.74317,-1.34715 -3.69267,-1.25105 -6.78893,-3.66166 -9.55792,-6.39004 -1.19373,-1.21555 -2.47153,-2.41896 -3.32165,-3.90568 -0.19545,-0.49917 -0.25639,-1.07191 -0.25129,-1.58904 z" /></g></svg>
